<svg viewBox="0 0 1000 520" xmlns="http://www.w3.org/2000/svg" style="width:100%; height:auto; display:block;">
  <defs>
    <linearGradient id="hdrSky2" x1="50%" y1="0%" x2="50%" y2="100%">
      <stop offset="0%" stop-color="#060810"/>
      <stop offset="50%" stop-color="#141B2C"/>
      <stop offset="100%" stop-color="#2E2416"/>
    </linearGradient>
    <radialGradient id="hdrNoor2" cx="50%" cy="42%" r="46%">
      <stop offset="0%" stop-color="#FFF9E6" stop-opacity="1"/>
      <stop offset="30%" stop-color="#FFF4D6" stop-opacity="0.6"/>
      <stop offset="65%" stop-color="#D4AF6A" stop-opacity="0.2"/>
      <stop offset="100%" stop-color="#060810" stop-opacity="0"/>
    </radialGradient>
    <linearGradient id="hdrDomeGold" x1="15%" y1="0%" x2="85%" y2="100%">
      <stop offset="0%" stop-color="#8A7048"/>
      <stop offset="30%" stop-color="#FFF4D6"/>
      <stop offset="55%" stop-color="#D4AF6A"/>
      <stop offset="80%" stop-color="#FFF4D6"/>
      <stop offset="100%" stop-color="#8A7048"/>
    </linearGradient>
    <linearGradient id="hdrDomeRib" x1="0%" y1="0%" x2="100%" y2="0%">
      <stop offset="0%" stop-color="#6b5738"/>
      <stop offset="50%" stop-color="#FFF9E6"/>
      <stop offset="100%" stop-color="#6b5738"/>
    </linearGradient>
    <linearGradient id="hdrWall2" x1="0%" y1="0%" x2="0%" y2="100%">
      <stop offset="0%" stop-color="#2B374F"/>
      <stop offset="100%" stop-color="#12182A"/>
    </linearGradient>
    <radialGradient id="hdrGlowSpot" cx="50%" cy="50%" r="50%">
      <stop offset="0%" stop-color="#FFF4D6" stop-opacity="0.8"/>
      <stop offset="100%" stop-color="#FFF4D6" stop-opacity="0"/>
    </radialGradient>
  </defs>

  <rect width="1000" height="520" fill="url(#hdrSky2)"/>
  <circle cx="500" cy="250" r="340" fill="url(#hdrNoor2)"/>

  <!-- ستارے -->
  <g fill="#FFF4D6">
    <circle cx="90" cy="60" r="1.4" opacity="0.7"/>
    <circle cx="150" cy="120" r="1" opacity="0.5"/>
    <circle cx="60" cy="180" r="1.2" opacity="0.6"/>
    <circle cx="910" cy="70" r="1.4" opacity="0.7"/>
    <circle cx="850" cy="130" r="1" opacity="0.5"/>
    <circle cx="940" cy="190" r="1.2" opacity="0.6"/>
    <circle cx="200" cy="50" r="1" opacity="0.4"/>
    <circle cx="800" cy="45" r="1" opacity="0.4"/>
  </g>

  <!-- کبوتروں کا دائرہ طواف -->
  <ellipse cx="500" cy="230" rx="270" ry="110" fill="none" stroke="#FFF4D6" stroke-width="0.6" opacity="0.14"/>
  <g fill="#EFE6D3">
    <g transform="translate(500,120) rotate(0)">
      <path d="M-9,0 Q0,-9 9,0 Q4,4 0,7 Q-4,4 -9,0 Z" opacity="0.95"/>
    </g>
    <g transform="translate(694,158) rotate(35)">
      <path d="M-8,0 Q0,-8 8,0 Q3.5,3.5 0,6 Q-3.5,3.5 -8,0 Z" opacity="0.9"/>
    </g>
    <g transform="translate(760,238) rotate(70)">
      <path d="M-7,0 Q0,-7 7,0 Q3,3 0,5.5 Q-3,3 -7,0 Z" opacity="0.85"/>
    </g>
    <g transform="translate(690,318) rotate(120)">
      <path d="M-8,0 Q0,-8 8,0 Q3.5,3.5 0,6 Q-3.5,3.5 -8,0 Z" opacity="0.9"/>
    </g>
    <g transform="translate(306,158) rotate(-35)">
      <path d="M-8,0 Q0,-8 8,0 Q3.5,3.5 0,6 Q-3.5,3.5 -8,0 Z" opacity="0.9"/>
    </g>
    <g transform="translate(240,238) rotate(-70)">
      <path d="M-7,0 Q0,-7 7,0 Q3,3 0,5.5 Q-3,3 -7,0 Z" opacity="0.85"/>
    </g>
    <g transform="translate(310,318) rotate(-120)">
      <path d="M-8,0 Q0,-8 8,0 Q3.5,3.5 0,6 Q-3.5,3.5 -8,0 Z" opacity="0.9"/>
    </g>
  </g>

  <!-- صحن اور دیوار -->
  <rect x="260" y="380" width="480" height="120" fill="url(#hdrWall2)"/>
  <g stroke="#D4AF6A" stroke-width="1" opacity="0.2">
    <line x1="310" y1="380" x2="310" y2="500"/>
    <line x1="360" y1="380" x2="360" y2="500"/>
    <line x1="410" y1="380" x2="410" y2="500"/>
    <line x1="460" y1="380" x2="460" y2="500"/>
    <line x1="540" y1="380" x2="540" y2="500"/>
    <line x1="590" y1="380" x2="590" y2="500"/>
    <line x1="640" y1="380" x2="640" y2="500"/>
    <line x1="690" y1="380" x2="690" y2="500"/>
  </g>
  <rect x="440" y="420" width="120" height="80" fill="#0A0E1A" stroke="#D4AF6A" stroke-width="1.5" opacity="0.85"/>
  <path d="M440 420 Q500 372 560 420 Z" fill="#0A0E1A" stroke="#D4AF6A" stroke-width="1.5" opacity="0.85"/>

  <!-- میناریں -->
  <g>
    <rect x="222" y="270" width="22" height="230" fill="url(#hdrWall2)" stroke="#8A7048" stroke-width="1"/>
    <rect x="216" y="255" width="34" height="16" rx="3" fill="url(#hdrDomeGold)"/>
    <path d="M233,255 Q212,210 233,175 Q254,210 233,255 Z" fill="url(#hdrDomeGold)"/>
    <circle cx="233" cy="168" r="6" fill="url(#hdrDomeGold)"/>
  </g>
  <g>
    <rect x="756" y="270" width="22" height="230" fill="url(#hdrWall2)" stroke="#8A7048" stroke-width="1"/>
    <rect x="750" y="255" width="34" height="16" rx="3" fill="url(#hdrDomeGold)"/>
    <path d="M767,255 Q746,210 767,175 Q788,210 767,255 Z" fill="url(#hdrDomeGold)"/>
    <circle cx="767" cy="168" r="6" fill="url(#hdrDomeGold)"/>
  </g>

  <!-- ڈرم (گنبد کی بنیاد) -->
  <rect x="410" y="300" width="180" height="82" fill="url(#hdrWall2)" stroke="#8A7048" stroke-width="1" opacity="0.9"/>
  <g stroke="#D4AF6A" stroke-width="1" opacity="0.35">
    <line x1="440" y1="300" x2="440" y2="382"/>
    <line x1="470" y1="300" x2="470" y2="382"/>
    <line x1="500" y1="300" x2="500" y2="382"/>
    <line x1="530" y1="300" x2="530" y2="382"/>
    <line x1="560" y1="300" x2="560" y2="382"/>
  </g>

  <!-- گنبدِ سنہری (پیازی شکل) -->
  <circle cx="500" cy="235" r="130" fill="url(#hdrGlowSpot)" opacity="0.5"/>
  <path d="M405 305
           C405 250 415 205 448 172
           C470 150 485 122 500 92
           C515 122 530 150 552 172
           C585 205 595 250 595 305
           Z" fill="url(#hdrDomeGold)"/>
  <g stroke="url(#hdrDomeRib)" stroke-width="2" opacity="0.55" fill="none">
    <path d="M500 92 C486 150 470 230 458 305"/>
    <path d="M500 92 C500 150 500 230 500 305"/>
    <path d="M500 92 C514 150 530 230 542 305"/>
    <path d="M500 92 C472 150 435 230 418 305"/>
    <path d="M500 92 C528 150 565 230 582 305"/>
  </g>
  <path d="M500 92 C485 122 470 150 448 172 C420 200 408 250 406 300 L455 300 C455 250 465 205 490 178 Z" fill="#FFF9E6" opacity="0.28"/>

  <!-- فینیل / علم -->
  <line x1="500" y1="92" x2="500" y2="46" stroke="url(#hdrDomeGold)" stroke-width="3.5"/>
  <circle cx="500" cy="92" r="8" fill="url(#hdrDomeGold)"/>
  <circle cx="500" cy="60" r="6" fill="url(#hdrDomeGold)"/>
  <path d="M500 46 L486 30 L500 14 L514 30 Z" fill="url(#hdrDomeGold)"/>

  <!-- عنوان -->
  <text x="500" y="490" fill="#FFF4D6" font-family="'Amiri', serif" font-size="30" font-weight="700" text-anchor="middle" opacity="0.94">حرمِ امام علی النقی علیہ السلام</text>
</svg>
